# xmcd
#
# Track frame offsets: 
#        150
#        14418
#        25158
#        36825
#        53246
#        67061
#        79617
#        94739
#        103766
#        115651
#        126149
#        141479
#        147790
#        159911
#        167357
#        182756
#        192127
#        203635
#        211124
#        224483
#        234180
#        239685
#
# Disc length: 3279 seconds
#
# Revision: 0
# Processed by: cddbd v1.5.2PL0 Copyright (c) Steve Scherf et al.
# Submitted via: ExactAudioCopyFreeDBPlugin 1.0
#
DISCID=300ccd16
DTITLE=Andy J. Forest - Word Shadows and Gost Notes
DYEAR=2015
DGENRE=Blues
TTITLE0=Bartender Friend
TTITLE1=Word Shadows
TTITLE2=Bulletproof Bible
TTITLE3=Fine Day For A Funeral
TTITLE4=Ella Dora
TTITLE5=More Love
TTITLE6=Last Goodbye
TTITLE7=Hummingbird
TTITLE8=Was That Me?
TTITLE9=Breach In the Levee
TTITLE10=Bywater
TTITLE11=I Wanna Know You
TTITLE12=Let 'Em Die
TTITLE13=Rusty Rainbow
TTITLE14=$10 Bill
TTITLE15=But First
TTITLE16=Take A Look
TTITLE17=When You Left Me
TTITLE18=Trailerless Man
TTITLE19=Honey I'M Home
TTITLE20=Elevator Song
TTITLE21=Chrombalt Blue
EXTD=
EXTT0=
EXTT1=
EXTT2=
EXTT3=
EXTT4=
EXTT5=
EXTT6=
EXTT7=
EXTT8=
EXTT9=
EXTT10=
EXTT11=
EXTT12=
EXTT13=
EXTT14=
EXTT15=
EXTT16=
EXTT17=
EXTT18=
EXTT19=
EXTT20=
EXTT21=
PLAYORDER=
